<?xml version="1.0" standalone="no"?>
<!DOCTYPE svg PUBLIC "-//W3C//DTD SVG 20010904//EN"
 "http://www.w3.org/TR/2001/REC-SVG-20010904/DTD/svg10.dtd">
<svg version="1.0" xmlns="http://www.w3.org/2000/svg"
 width="500.000000pt" height="500.000000pt" viewBox="0 0 500.000000 500.000000"
 preserveAspectRatio="xMidYMid meet">

<g transform="translate(0.000000,500.000000) scale(0.100000,-0.100000)"
fill="#000000" stroke="none">
<path d="M0 2500 l0 -2500 2500 0 2500 0 0 2500 0 2500 -2500 0 -2500 0 0
-2500z m2609 1100 c250 -26 486 -138 666 -315 39 -38 86 -91 103 -117 l33 -48
138 0 c188 0 252 -24 287 -107 18 -41 18 -124 0 -166 -29 -71 -124 -117 -238
-117 l-57 0 -3 -127 -3 -128 -30 -5 c-16 -3 -45 -4 -62 -2 l-33 4 0 189 0 189
23 1 c12 0 73 2 135 2 111 2 114 3 138 30 31 36 30 62 -1 92 -23 24 -29 25
-160 25 -125 0 -135 1 -135 19 0 19 -44 108 -64 128 -6 7 -47 26 -91 42 -89
34 -90 42 -1 11 39 -13 56 -16 53 -7 -5 18 -155 145 -205 174 l-43 26 -30 -29
c-16 -15 -29 -33 -29 -40 0 -19 50 -74 66 -74 9 0 13 -4 10 -9 -4 -5 6 -24 21
-43 l27 -33 -37 34 c-20 19 -39 32 -43 29 -9 -9 -41 25 -37 39 8 20 -36 56
-60 49 -51 -14 -72 -16 -40 -4 18 7 34 16 35 20 2 4 -21 25 -51 47 -29 22 -56
43 -60 47 -11 12 22 -8 76 -48 51 -37 73 -46 73 -30 0 4 -6 14 -12 22 -7 8 -3
6 10 -5 23 -19 23 -19 48 7 l26 26 -43 26 c-45 27 -44 37 1 11 40 -23 46 -17
15 15 -38 40 -181 93 -160 60 4 -6 27 -21 53 -34 38 -20 42 -24 20 -22 -15 1
-33 8 -41 14 -8 7 -39 21 -68 32 -30 11 -40 18 -24 14 27 -5 28 -4 15 10 -9 9
-38 18 -65 22 -34 4 -46 3 -36 -4 10 -7 -16 -9 -78 -7 l-93 4 55 -58 c30 -31
72 -84 93 -117 20 -32 42 -63 48 -67 6 -4 37 -6 69 -3 31 2 57 0 57 -4 0 -5
10 -11 23 -13 12 -3 -9 -2 -47 1 -58 4 -71 2 -82 -12 -8 -11 -14 -13 -19 -7
-3 6 -17 11 -31 11 -23 0 -24 1 -10 16 9 8 16 18 16 20 0 19 -136 194 -150
194 -6 0 -11 -12 -11 -27 -2 -22 -3 -19 -8 11 -7 45 -36 70 -51 46 -8 -13 -10
-12 -10 3 0 14 -4 16 -18 8 -10 -6 -27 -8 -38 -5 -11 3 -60 -8 -109 -25 -101
-34 -129 -34 -36 0 56 20 86 39 63 39 -39 0 -120 -24 -138 -41 -15 -14 -23
-17 -26 -8 -3 10 -14 10 -48 1 -55 -14 -65 -8 -13 8 21 6 44 14 52 16 8 2 12
7 9 9 -7 8 -115 -23 -159 -46 -50 -25 -46 -35 4 -14 63 26 55 15 -11 -15 -34
-16 -65 -36 -68 -44 -3 -8 -11 -13 -18 -10 -19 7 -101 -52 -142 -104 -48 -61
-62 -74 -41 -39 28 45 5 31 -63 -38 -64 -65 -65 -83 -1 -44 47 29 63 19 24
-15 -22 -18 -31 -22 -27 -11 6 15 2 14 -33 -4 -46 -23 -90 -71 -99 -107 -3
-13 -9 -24 -13 -24 -4 0 -20 -27 -36 -60 -16 -33 -30 -58 -33 -56 -7 8 79 170
124 233 178 250 466 423 766 462 92 12 134 12 247 1z m-189 -87 c-34 -22 -210
-200 -210 -213 0 -5 13 -10 29 -10 17 0 33 -4 36 -10 4 -6 -6 -7 -25 -3 -23 4
-39 0 -60 -15 l-28 -21 6 21 c5 19 2 20 -34 14 -21 -4 -44 -14 -50 -22 -10
-13 -12 -13 -17 0 -4 9 -1 18 4 22 6 3 9 15 6 25 -3 11 -1 19 4 19 4 0 15 12
23 28 l15 27 -5 -31 c-6 -29 -3 -33 30 -44 43 -14 49 -10 103 63 36 49 169
167 188 166 6 0 -1 -7 -15 -16z m230 7 c8 -5 11 -10 5 -10 -5 0 -17 5 -25 10
-8 5 -10 10 -5 10 6 0 17 -5 25 -10z m117 4 c-3 -3 -12 -4 -19 -1 -8 3 -5 6 6
6 11 1 17 -2 13 -5z m-67 -24 c8 -5 11 -10 5 -10 -5 0 -17 5 -25 10 -8 5 -10
10 -5 10 6 0 17 -5 25 -10z m-513 -46 c-19 -13 -38 -31 -41 -41 -6 -14 -9 -15
-16 -3 -7 11 -18 8 -59 -20 -28 -19 -49 -40 -47 -47 3 -7 -1 -10 -9 -7 -8 3
-36 -13 -65 -38 -47 -40 -49 -43 -28 -50 20 -5 20 -6 -6 -7 -22 -1 -42 -14
-78 -52 -53 -56 -58 -69 -28 -69 19 0 20 -7 21 -127 2 -207 2 -265 0 -315 l-1
-48 -60 0 -60 0 -1 98 0 97 -81 -162 c-45 -89 -86 -164 -92 -166 -6 -2 -34 -1
-62 1 l-50 4 -85 166 -84 167 -3 -183 -2 -183 -63 3 -62 3 -3 323 -2 322 65 0
66 0 116 -236 c63 -130 119 -232 123 -227 4 4 29 55 55 113 26 58 74 160 106
228 53 110 61 122 85 122 18 0 39 14 70 48 24 26 39 49 33 50 -5 2 3 11 20 20
32 18 121 98 121 109 0 3 -8 16 -17 27 -18 21 -18 21 3 4 11 -10 25 -18 31
-18 15 0 108 59 151 96 22 19 43 29 54 26 16 -4 14 -8 -15 -28z m300 -1 c-3
-10 -5 -4 -5 12 0 17 2 24 5 18 2 -7 2 -21 0 -30z m333 -19 c0 -2 -13 2 -30
11 -16 9 -30 18 -30 21 0 2 14 -2 30 -11 17 -9 30 -18 30 -21z m-343 -51 c-3
-10 -5 -4 -5 12 0 17 2 24 5 18 2 -7 2 -21 0 -30z m90 -30 c-3 -10 -5 -2 -5
17 0 19 2 27 5 18 2 -10 2 -26 0 -35z m-94 -73 c-3 -14 -9 -29 -14 -34 -7 -7
-7 21 0 79 1 6 6 3 11 -5 5 -8 7 -26 3 -40z m105 9 c-17 -10 -28 -2 -21 17 4
11 8 12 20 3 11 -10 11 -14 1 -20z m-200 4 c-15 -2 -42 -2 -60 0 -18 2 -6 4
27 4 33 0 48 -2 33 -4z m295 0 c-13 -2 -35 -2 -50 0 -16 2 -5 4 22 4 28 0 40
-2 28 -4z m-626 -29 c-3 -3 -12 -4 -19 -1 -8 3 -5 6 6 6 11 1 17 -2 13 -5z
m351 -1 c-15 -2 -42 -2 -60 0 -18 2 -6 4 27 4 33 0 48 -2 33 -4z m182 -69 l0
-76 127 3 127 3 12 -54 c7 -30 13 -56 14 -58 0 -2 -4 0 -10 3 -5 3 -10 1 -10
-4 0 -7 -33 -11 -90 -11 l-90 0 0 -70 0 -70 129 0 128 0 7 -37 c14 -89 23 -83
-129 -83 l-135 0 0 -75 0 -75 90 0 90 0 0 -60 0 -60 -155 0 -155 0 0 325 c0
318 0 325 20 325 18 0 20 7 20 60 0 46 -4 62 -16 67 -13 5 -13 7 -2 14 25 16
28 9 28 -67z m78 69 c-10 -2 -28 -2 -40 0 -13 2 -5 4 17 4 22 1 32 -1 23 -4z
m315 0 c-7 -2 -19 -2 -25 0 -7 3 -2 5 12 5 14 0 19 -2 13 -5z m-986 -9 c-3 -3
-12 -4 -19 -1 -8 3 -5 6 6 6 11 1 17 -2 13 -5z m1140 -20 c-3 -3 -12 -4 -19
-1 -8 3 -5 6 6 6 11 1 17 -2 13 -5z m-1060 -26 c-3 -8 -6 -5 -6 6 -1 11 2 17
5 13 3 -3 4 -12 1 -19z m1100 16 c-3 -3 -12 -4 -19 -1 -8 3 -5 6 6 6 11 1 17
-2 13 -5z m-710 -56 c-2 -13 -4 -5 -4 17 -1 22 1 32 4 23 2 -10 2 -28 0 -40z
m352 -23 c0 -5 -6 1 -14 15 -8 14 -14 30 -14 35 0 6 6 -1 14 -15 8 -14 14 -29
14 -35z m-752 23 c-3 -8 -6 -5 -6 6 -1 11 2 17 5 13 3 -3 4 -12 1 -19z m1144
-48 c42 0 107 -29 136 -61 72 -78 54 -239 -32 -285 -19 -10 -35 -22 -35 -26 0
-4 27 -66 60 -138 33 -72 60 -133 60 -136 0 -3 -30 -4 -67 -2 l-67 3 -58 125
c-57 123 -58 125 -93 128 l-35 3 0 -130 0 -131 -65 0 -65 0 0 190 0 190 78 1
c170 1 195 5 219 34 28 32 29 55 4 86 -18 23 -27 24 -158 29 l-138 5 -3 58 -3
57 61 0 c40 0 60 4 60 12 0 9 3 9 12 0 7 -7 25 -12 41 -12 23 0 28 3 23 17 -6
16 -6 16 12 0 10 -9 34 -17 53 -17z m-1154 -2 c-3 -8 -6 -5 -6 6 -1 11 2 17 5
13 3 -3 4 -12 1 -19z m281 -29 c70 -35 105 -71 140 -148 63 -138 25 -315 -89
-406 -117 -94 -296 -87 -404 16 -76 71 -100 130 -100 244 0 82 3 97 32 155 37
76 69 109 138 144 42 21 64 26 136 26 76 0 93 -3 147 -31z m1271 -541 c-1 -45
-2 -49 -9 -25 -5 16 -14 35 -21 43 -10 12 -9 13 5 8 11 -4 16 -1 16 10 0 9 2
16 5 16 3 0 5 -24 4 -52z m-2002 -70 c-3 -8 -6 -5 -6 6 -1 11 2 17 5 13 3 -3
4 -12 1 -19z m310 -15 c-3 -10 -5 -4 -5 12 0 17 2 24 5 18 2 -7 2 -21 0 -30z
m1692 0 c0 -10 -19 -34 -42 -53 l-42 -34 38 40 c20 22 37 45 37 52 0 7 2 12 5
12 3 0 5 -8 4 -17z m-2082 -25 c-3 -7 -5 -2 -5 12 0 14 2 19 5 13 2 -7 2 -19
0 -25z m-101 -75 c4 -33 10 -42 30 -47 24 -6 25 -10 22 -69 -3 -56 -5 -62 -23
-59 -133 19 -187 12 -198 -27 -8 -33 14 -47 108 -70 70 -17 97 -28 120 -51 28
-29 30 -35 30 -108 0 -143 -52 -187 -220 -187 -55 0 -117 4 -137 8 l-38 8 0
69 0 69 28 -9 c55 -15 166 -22 195 -11 24 9 28 16 25 43 -3 32 -5 34 -83 54
-143 37 -168 63 -167 168 1 130 82 192 242 185 l55 -3 -2 70 c-1 66 0 62 13
-33z m1561 20 c-2 -16 -4 -5 -4 22 0 28 2 40 4 28 2 -13 2 -35 0 -50z m620
-10 c-3 -10 -5 -2 -5 17 0 19 2 27 5 18 2 -10 2 -26 0 -35z m-2126 20 c13 -16
12 -17 -3 -4 -10 7 -18 15 -18 17 0 8 8 3 21 -13z m1946 -5 c-3 -8 -6 -5 -6 6
-1 11 2 17 5 13 3 -3 4 -12 1 -19z m-1471 -68 l44 0 0 -65 0 -65 -80 0 -79 0
0 -216 c1 -118 -1 -217 -3 -219 -2 -3 -27 -5 -55 -6 -51 -2 -51 -2 -37 -24 23
-36 179 -165 198 -165 11 0 6 23 -8 39 -13 14 -12 16 8 16 15 0 22 -5 18 -13
-13 -36 77 -106 161 -126 36 -8 35 8 -2 30 -16 10 -32 26 -35 37 -5 18 -4 18
17 -1 12 -12 38 -28 57 -36 26 -11 30 -16 15 -16 -35 -2 56 -40 95 -39 29 0
31 2 15 9 -25 11 -5 11 58 1 26 -4 47 -6 47 -5 0 2 -12 10 -27 19 -16 9 -21
14 -13 11 8 -3 32 -10 53 -17 38 -13 64 -4 36 11 -9 5 -33 31 -54 57 l-38 48
44 -42 c50 -48 56 -50 62 -25 3 9 5 3 6 -15 1 -35 37 -67 45 -41 12 39 14 41
15 15 l1 -28 41 23 c22 12 63 42 91 65 27 24 52 43 55 43 5 0 -39 -41 -110
-102 l-22 -18 30 6 c50 10 158 46 196 65 20 10 46 30 56 45 18 25 20 25 18 5
-1 -12 -17 -38 -36 -57 -22 -24 -30 -38 -21 -41 6 -3 9 -9 6 -14 -10 -17 118
19 166 46 39 22 9 18 -64 -10 -37 -14 -72 -25 -79 -25 -6 1 27 16 75 34 103
39 142 62 134 82 -4 11 -2 11 13 2 15 -9 26 -5 64 20 25 18 61 51 81 74 20 24
33 34 30 24 -7 -17 -4 -16 25 5 l33 24 -79 6 c-68 5 -82 3 -108 -15 -20 -13
-26 -15 -17 -4 10 13 10 17 0 20 -7 3 4 8 25 12 l37 7 0 274 0 275 70 0 c49 0
70 -4 70 -12 1 -7 1 -134 1 -281 1 -239 3 -268 16 -262 32 12 -35 -61 -118
-128 -101 -83 -286 -177 -406 -207 -442 -110 -893 43 -1157 394 -86 115 -106
161 -79 181 10 7 14 19 10 29 -4 10 -3 15 3 11 6 -3 10 -17 10 -31 0 -54 81
-184 114 -184 3 0 6 81 6 180 l0 180 -75 0 -75 0 0 65 c0 64 0 65 28 66 15 1
31 1 36 0 5 -1 13 4 17 11 7 10 9 10 9 1 0 -10 33 -13 130 -13 l130 0 2 43 1
42 4 -42 4 -43 45 0z m101 58 c-3 -8 -6 -5 -6 6 -1 11 2 17 5 13 3 -3 4 -12 1
-19z m-527 -13 c7 -8 8 -15 2 -15 -5 0 -15 7 -22 15 -7 8 -8 15 -2 15 5 0 15
-7 22 -15z m1946 -19 c-14 -10 -41 -66 -32 -66 2 0 25 10 52 22 73 34 219 32
289 -2 87 -43 115 -107 115 -261 0 -207 -62 -284 -238 -296 -106 -8 -184 15
-233 67 -31 32 -39 51 -49 108 -19 106 -9 224 25 300 23 51 26 67 17 86 -12
27 -7 36 20 36 10 0 18 7 18 15 0 9 6 12 15 9 14 -6 14 -8 1 -18z m-1345 -26
l59 0 0 -50 c0 -49 1 -50 30 -50 17 0 30 -4 30 -10 0 -5 -13 -10 -30 -10 l-30
0 0 -136 c0 -74 4 -144 10 -154 24 -45 145 -50 175 -7 11 16 15 53 15 154 l0
133 -27 1 -28 2 28 4 c40 6 33 23 -10 25 l-38 1 38 4 c37 4 37 5 37 49 l0 44
70 0 70 0 1 -42 c1 -24 1 -117 0 -208 -2 -158 -3 -167 -29 -219 -22 -45 -36
-60 -77 -80 -43 -22 -62 -26 -140 -26 -73 1 -98 5 -132 23 -49 26 -79 62 -93
111 -19 73 -12 513 8 453 2 -8 26 -12 63 -12z m798 -11 c114 -24 152 -80 159
-233 8 -170 -24 -247 -122 -299 -35 -18 -62 -22 -193 -25 l-153 -4 -1 216 c-1
119 -2 230 -2 246 0 17 1 48 2 70 l1 40 130 0 c71 0 152 -5 179 -11z m-1402
-61 c-2 -13 -4 -5 -4 17 -1 22 1 32 4 23 2 -10 2 -28 0 -40z m443 -484 c0 4 7
0 16 -9 9 -9 14 -19 10 -22 -10 -11 36 -53 57 -53 11 0 17 -3 14 -7 -4 -3 1
-16 10 -27 18 -21 18 -21 -3 -3 -26 21 -48 22 -40 1 13 -35 -15 0 -33 42 -14
31 -30 49 -52 58 -18 7 -27 15 -20 17 7 3 -1 20 -21 44 l-31 40 46 -45 c26
-24 47 -41 47 -36z m585 -46 c-2 -33 -18 -48 -30 -29 -3 6 -1 11 4 11 6 0 11
11 11 25 0 14 4 25 9 25 5 0 8 -14 6 -32z m-770 2 c10 -11 16 -20 13 -20 -3 0
-13 9 -23 20 -10 11 -16 20 -13 20 3 0 13 -9 23 -20z m268 13 c-7 -2 -19 -2
-25 0 -7 3 -2 5 12 5 14 0 19 -2 13 -5z m393 -18 c1 -14 -2 -25 -7 -25 -5 0
-9 9 -9 19 0 11 -8 22 -17 24 -12 3 -10 5 7 6 20 1 25 -4 26 -24z m167 18 c-7
-2 -19 -2 -25 0 -7 3 -2 5 12 5 14 0 19 -2 13 -5z m384 1 c-3 -3 -12 -4 -19
-1 -8 3 -5 6 6 6 11 1 17 -2 13 -5z m-880 -10 c-3 -3 -12 -4 -19 -1 -8 3 -5 6
6 6 11 1 17 -2 13 -5z m813 -9 c-6 -8 -9 -18 -6 -23 3 -6 -1 -15 -9 -22 -12
-10 -15 -9 -15 4 0 11 -12 19 -32 23 l-33 7 45 12 c61 16 64 16 50 -1z m-745
-5 c-28 -12 -47 -12 -40 0 3 6 18 10 33 9 24 0 25 -1 7 -9z m62 4 c-3 -3 -12
-4 -19 -1 -8 3 -5 6 6 6 11 1 17 -2 13 -5z m503 -10 c0 -2 -24 -3 -52 -3 -52
2 -53 2 -13 8 37 6 65 4 65 -5z m-430 -1 c-14 -3 -28 -9 -31 -15 -4 -5 -9 -3
-12 6 -5 13 1 16 31 15 28 -1 31 -3 12 -6z m63 0 c-7 -2 -19 -2 -25 0 -7 3 -2
5 12 5 14 0 19 -2 13 -5z m-542 -30 c13 -16 12 -17 -3 -4 -17 13 -22 21 -14
21 2 0 10 -8 17 -17z m1192 -6 c-9 -13 -27 -28 -39 -34 -21 -9 -21 -9 -11 8 7
11 17 19 23 19 6 0 17 7 24 15 20 24 23 17 3 -8z m-718 -23 c9 -15 12 -23 6
-20 -11 7 -35 46 -28 46 3 0 12 -12 22 -26z m-405 -21 c0 -7 -39 17 -46 28 -3
6 5 3 20 -6 14 -10 26 -19 26 -22z m870 34 c0 -2 -12 -14 -27 -28 l-28 -24 24
28 c23 25 31 32 31 24z m-333 -54 c-3 -10 -5 -4 -5 12 0 17 2 24 5 18 2 -7 2
-21 0 -30z m90 0 c-3 -10 -5 -4 -5 12 0 17 2 24 5 18 2 -7 2 -21 0 -30z m-377
-20 c0 -8 -38 17 -51 33 -9 11 -2 9 19 -6 17 -13 32 -25 32 -27z m785 21 c-26
-20 -55 -36 -55 -30 0 5 63 46 70 46 3 -1 -4 -8 -15 -16z m-889 -62 c-5 -4
-86 36 -86 43 0 3 20 -5 45 -17 24 -12 43 -23 41 -26z m270 -50 c-5 -4 -126
56 -126 63 0 3 29 -10 65 -27 35 -18 63 -34 61 -36z m201 36 c-3 -8 -6 -5 -6
6 -1 11 2 17 5 13 3 -3 4 -12 1 -19z m-270 -54 c-3 -3 -12 -4 -19 -1 -8 3 -5
6 6 6 11 1 17 -2 13 -5z"/>
<path d="M3060 3422 c0 -13 16 -29 43 -45 23 -14 67 -46 97 -71 29 -25 56 -43
60 -40 7 8 -129 134 -169 157 -30 18 -31 18 -31 -1z"/>
<path d="M3340 3180 c12 -16 26 -30 31 -30 6 0 1 14 -11 30 -12 17 -26 30 -31
30 -6 0 -1 -13 11 -30z"/>
<path d="M3396 3095 c4 -8 8 -15 10 -15 2 0 4 7 4 15 0 8 -4 15 -10 15 -5 0
-7 -7 -4 -15z"/>
<path d="M2131 2998 c-54 -15 -80 -38 -107 -90 -56 -111 -19 -253 78 -304 15
-8 52 -14 83 -14 115 0 188 80 187 205 -1 107 -51 182 -136 204 -52 13 -59 13
-105 -1z m100 -169 l29 -31 -21 -29 c-28 -39 -71 -43 -101 -8 -9 10 -21 19
-27 19 -12 0 -5 11 36 56 29 32 49 30 84 -7z"/>
<path d="M2706 1487 c-81 -32 -86 -44 -13 -33 46 7 107 39 107 56 0 13 -2 13
-94 -23z"/>
<path d="M2490 1410 c0 -5 12 -10 26 -10 14 0 23 4 19 10 -3 6 -15 10 -26 10
-10 0 -19 -4 -19 -10z"/>
<path d="M3553 2190 c-31 -13 -43 -41 -48 -117 -6 -88 3 -151 26 -174 22 -22
97 -34 146 -22 59 13 75 53 71 177 -4 93 -5 100 -31 122 -23 19 -39 24 -85 23
-31 0 -67 -4 -79 -9z"/>
<path d="M2750 2034 l0 -157 65 6 c77 6 100 22 116 81 11 40 7 143 -7 179 -10
28 -58 47 -119 47 l-55 0 0 -156z"/>
</g>
</svg>
